<svg preserveAspectRatio="none" overflow="visible" style="display: block;" width="14.7119" height="12.39" viewBox="0 0 14.7119 12.39" fill="none" xmlns="http://www.w3.org/2000/svg">
<g id="Group 427323548">
<path id="Union" d="M3.35254 0.0344933C4.76522 -0.280404 5.68164 1.65025 5.9082 2.18977C6.33105 2.14672 6.76786 2.12337 7.21582 2.12336C7.50001 2.12336 7.78152 2.13323 8.05859 2.1507C8.31111 1.56256 9.21785 -0.271968 10.5977 0.0354699C12.025 0.353667 12.2233 2.0844 12.1953 3.22199C13.7299 4.03256 14.7119 5.25593 14.7119 6.7718C14.7118 9.60656 12.1045 12.39 7.21582 12.39C2.32748 12.3898 0.000107584 9.60648 0 6.7718C0 5.47316 0.662712 4.38974 1.77051 3.59602C1.69436 2.51203 1.75668 0.390265 3.35254 0.0344933Z" fill="#F1E1D0"/>
</g>
</svg>
